<?xml version="1.0" standalone="no"?>
<!DOCTYPE svg PUBLIC "-//W3C//DTD SVG 20010904//EN"
 "http://www.w3.org/TR/2001/REC-SVG-20010904/DTD/svg10.dtd">
<svg version="1.0" xmlns="http://www.w3.org/2000/svg"
 width="154.000000pt" height="95.000000pt" viewBox="0 0 154.000000 95.000000"
 preserveAspectRatio="xMidYMid meet">
<metadata>
Created by potrace 1.10, written by Peter Selinger 2001-2011
</metadata>
<g transform="translate(0.000000,95.000000) scale(0.100000,-0.100000)"
fill="#388bb1" stroke="none">
<path d="M507 821 c-34 -32 -63 -51 -78 -51 -64 0 -262 -140 -322 -228 -91
-130 -74 -308 39 -419 174 -169 471 -97 539 131 10 31 17 40 31 38 38 -6 90
-5 112 2 18 6 22 3 22 -14 0 -34 48 -118 90 -159 69 -66 120 -86 230 -86 87 0
100 3 148 29 66 37 117 92 149 162 19 42 24 70 24 131 0 113 -37 182 -151 281
-105 90 -133 108 -198 125 -28 7 -65 26 -84 43 -55 50 -81 64 -116 64 -38 0
-85 -21 -104 -48 -10 -13 -27 -17 -68 -17 -48 0 -58 4 -80 29 -21 22 -37 30
-77 33 -51 5 -53 5 -106 -46z m113 10 c0 -5 9 -7 21 -4 15 4 22 0 26 -15 9
-38 139 -51 180 -19 13 10 23 15 23 11 0 -4 6 0 13 9 18 24 83 30 104 9 9 -9
19 -17 22 -17 3 -1 21 -16 40 -34 22 -20 41 -31 53 -28 10 3 18 2 18 -2 0 -4
7 -8 15 -9 8 -1 22 -3 30 -4 8 -1 15 -6 15 -11 0 -6 3 -7 6 -4 10 9 65 -33 58
-44 -3 -5 0 -8 8 -7 7 2 12 -3 10 -10 -1 -8 2 -11 8 -7 10 6 100 -59 109 -78
1 -4 12 -17 24 -28 15 -14 17 -19 6 -19 -8 -1 -4 -6 9 -13 12 -7 19 -16 15
-21 -4 -4 -1 -11 7 -16 12 -7 15 -32 14 -112 0 -99 -1 -105 -34 -155 -18 -29
-37 -53 -42 -53 -5 0 -6 -4 -3 -10 3 -5 0 -10 -7 -10 -7 0 -25 -11 -39 -24
-14 -13 -39 -27 -55 -30 -16 -3 -40 -9 -54 -12 -37 -8 -110 -11 -110 -4 0 3
-9 6 -21 7 -11 1 -33 10 -47 20 -15 9 -29 18 -32 18 -9 0 -63 45 -56 45 4 0
-6 12 -23 26 -17 14 -30 28 -29 32 0 4 -5 23 -13 42 -7 19 -12 38 -11 42 5 18
-44 29 -116 26 l-77 -3 -35 -71 c-42 -85 -68 -113 -136 -148 -93 -48 -245 -45
-297 6 -12 11 -15 17 -7 13 13 -8 13 -7 1 8 -15 19 -26 23 -15 6 15 -25 -14
-1 -56 45 -25 27 -38 46 -30 41 9 -5 7 0 -5 14 -16 18 -19 37 -19 109 0 113 6
152 23 152 8 0 11 3 8 6 -8 8 51 84 64 84 6 0 37 27 70 60 33 33 66 60 73 60
8 0 16 5 18 12 2 6 14 12 25 13 12 0 28 6 35 13 15 12 47 10 71 -4 7 -5 6 0
-3 11 -8 10 -10 16 -3 12 7 -5 23 6 39 27 17 21 34 33 45 31 12 -3 16 1 12 11
-4 10 3 14 26 14 17 0 31 -4 31 -9z"/>
<path d="M387 593 c-3 -3 -29 -7 -56 -8 -29 -2 -58 -11 -67 -19 -8 -9 -21 -16
-28 -16 -8 0 -20 -8 -27 -17 -13 -17 -13 -17 6 -3 19 14 19 14 6 -3 -7 -9 -21
-16 -30 -15 -10 2 -16 -4 -16 -18 0 -11 -6 -28 -13 -37 -20 -24 -27 -127 -12
-173 7 -21 22 -50 34 -63 11 -13 14 -21 6 -16 -8 4 -5 -2 7 -13 27 -27 89 -62
108 -62 8 0 15 -5 15 -10 0 -16 105 -3 148 19 20 10 40 18 44 17 7 -1 83 92
83 103 0 3 3 11 7 16 11 17 6 165 -5 158 -5 -3 -8 0 -5 8 3 8 0 19 -6 26 -30
34 -36 43 -29 43 10 0 -75 61 -90 64 -6 2 -20 6 -29 9 -35 13 -46 16 -51 10z
m81 -52 c73 -38 112 -104 112 -191 0 -187 -231 -275 -357 -136 -97 107 -68
261 62 329 43 23 137 22 183 -2z"/>
<path d="M1100 590 c0 -5 -6 -10 -13 -10 -7 0 -19 -6 -25 -12 -7 -7 -17 -13
-22 -13 -4 0 -19 -12 -33 -27 -19 -20 -27 -24 -37 -15 -10 9 -11 9 -6 0 4 -7
-3 -40 -15 -73 -25 -70 -22 -132 10 -194 11 -21 18 -43 14 -49 -3 -6 -1 -7 5
-3 7 4 12 3 12 -1 0 -9 9 -14 89 -54 80 -41 171 -27 247 38 27 23 75 88 70 94
-3 3 -1 22 4 44 11 47 2 135 -13 132 -6 -1 -12 8 -13 21 -1 13 -10 29 -20 37
-11 7 -32 25 -49 40 -45 40 -56 43 -119 42 -32 -1 -60 1 -63 5 -6 11 -23 10
-23 -2z m153 -43 c45 -19 104 -88 117 -138 6 -23 8 -60 5 -83 -32 -191 -269
-245 -380 -87 -27 38 -30 51 -30 116 0 65 3 78 30 116 55 79 170 112 258 76z"/>
<path d="M730 539 c-14 -4 -21 -7 -16 -8 4 -1 -2 -10 -15 -21 -15 -12 -19 -19
-10 -20 11 0 10 -4 -3 -19 -10 -10 -13 -21 -8 -22 6 -2 12 -13 14 -24 4 -27
21 -44 58 -56 25 -9 35 -8 58 7 15 10 30 19 35 19 4 0 8 5 9 10 1 6 5 27 9 48
3 21 4 36 1 33 -7 -7 -44 42 -39 51 6 10 -61 12 -93 2z m78 -35 c46 -32 17
-114 -40 -114 -26 0 -58 36 -58 65 0 29 32 65 58 65 10 0 28 -7 40 -16z"/>
</g>
</svg>
