<svg id="SvgjsSvg1001" width="288" height="288" xmlns="http://www.w3.org/2000/svg" version="1.1" xmlns:xlink="http://www.w3.org/1999/xlink" xmlns:svgjs="http://svgjs.com/svgjs"><defs id="SvgjsDefs1002"></defs><g id="SvgjsG1008" transform="matrix(1,0,0,1,0,0)"><svg xmlns="http://www.w3.org/2000/svg" width="288" height="288" version="1.0" viewBox="0 0 900 621"><path fill="#388bb1" d="M1845 5751 c-51 -13 -111 -58 -144 -106 -17 -25 -31 -48 -31 -50 0-2 -20 -38 -45 -79 -25 -42 -45 -79 -45 -81 0 -3 -10 -22 -23 -43 -13 -20 -41
-68 -62 -107 -21 -38 -49 -88 -62 -110 -12 -22 -27 -49 -33 -60 -6 -11 -18
-33 -28 -50 -10 -16 -35 -59 -54 -95 -20 -36 -50 -89 -67 -118 -17 -29 -31
-55 -31 -57 0 -2 -20 -38 -45 -79 -25 -42 -45 -79 -45 -81 0 -2 -19 -37 -43
-77 -24 -40 -46 -80 -50 -88 -4 -8 -15 -28 -25 -45 -10 -16 -35 -59 -54 -95
-20 -36 -50 -89 -67 -118 -17 -29 -31 -55 -31 -57 0 -2 -20 -38 -45 -79 -25
-42 -45 -78 -45 -80 0 -3 -20 -39 -45 -80 -25 -42 -45 -78 -45 -80 0 -3 -19
-37 -43 -78 -24 -40 -46 -80 -50 -88 -4 -8 -17 -31 -28 -50 -12 -19 -32 -55
-46 -80 -13 -25 -32 -58 -42 -75 -27 -46 -80 -143 -118 -213 -57 -109 -42
-220 43 -304 20 -21 147 -104 281 -185 134 -82 256 -156 271 -165 98 -61 176
-73 255 -38 59 26 111 82 160 172 22 40 49 86 59 101 l20 28 30 -28 c17 -15
72 -80 123 -143 50 -63 111 -137 134 -165 22 -27 41 -56 41 -64 0 -7 -13 -35
-29 -61 -66 -108 -73 -132 -69 -259 3 -104 6 -122 32 -176 27 -56 70 -119 106
-155 61 -61 180 -127 249 -137 52 -8 61 -19 61 -77 0 -78 45 -195 104 -271 97
-124 239 -195 391 -195 l72 0 18 -47 c77 -207 289 -351 481 -329 115 13 104
18 143 -59 35 -68 114 -159 176 -201 27 -17 62 -34 144 -65 54 -21 135 -22
208 -1 98 28 171 79 234 163 56 75 65 79 134 53 22 -9 54 -19 70 -24 17 -5 62
-18 100 -30 97 -28 126 -35 344 -79 92 -19 306 -14 384 8 136 39 259 129 374
273 l54 68 72 0 c141 0 250 42 338 129 59 59 101 136 125 228 23 88 27 93 87
93 52 0 154 27 199 52 52 29 101 73 141 126 52 70 70 108 92 200 l18 72 66 0
c114 0 218 42 306 122 94 85 155 221 155 343 0 59 -23 159 -41 181 -12 15 -4
64 10 64 22 0 180 131 293 244 69 69 133 126 141 126 8 0 27 -24 43 -52 61
-117 79 -145 119 -181 67 -63 166 -84 242 -52 29 12 388 226 481 287 15 10 34
21 42 25 59 27 136 97 163 148 16 30 21 58 21 115 0 68 -3 81 -39 145 -21 39
-49 87 -62 107 -13 21 -23 40 -23 43 0 2 -19 37 -43 77 -24 40 -46 80 -50 88
-4 8 -17 31 -28 50 -12 19 -32 55 -46 80 -13 25 -35 63 -47 85 -12 22 -40 72
-61 110 -21 39 -49 87 -62 107 -13 21 -23 40 -23 42 0 4 -79 144 -100 176 -5
8 -16 29 -24 45 -8 17 -29 53 -45 80 -17 28 -34 57 -38 65 -4 8 -19 37 -35 63
-15 27 -43 76 -62 110 -18 34 -43 78 -55 97 -11 19 -24 42 -28 50 -4 8 -26 48
-50 88 -24 41 -43 75 -43 78 0 2 -20 38 -45 80 -25 41 -45 77 -45 80 0 2 -20
38 -45 80 -25 41 -45 77 -45 80 0 2 -20 38 -45 80 -25 41 -45 77 -45 79 0 2
-14 28 -31 57 -17 29 -47 82 -66 118 -52 94 -76 124 -130 156 -41 24 -59 28
-123 28 l-75 1 -163 -100 c-90 -55 -175 -108 -190 -117 -15 -10 -36 -22 -47
-28 -11 -6 -32 -18 -47 -28 -15 -9 -58 -36 -96 -59 -132 -80 -176 -149 -170
-263 3 -54 10 -77 43 -135 53 -93 56 -100 42 -119 -17 -24 -148 -51 -237 -50
-70 0 -167 15 -285 44 -27 7 -75 18 -105 25 -30 8 -91 21 -135 30 -44 9 -97
21 -117 26 -20 5 -67 14 -105 19 -37 5 -97 14 -133 20 -84 14 -663 13 -800 -1
-58 -5 -145 -14 -195 -19 -151 -14 -336 -51 -459 -92 -164 -55 -225 -96 -298
-204 -17 -25 -37 -48 -45 -51 -7 -3 -51 0 -96 6 -261 36 -409 67 -473 98 -57
28 -224 129 -259 157 -33 27 -34 26 29 130 26 43 30 59 30 125 -1 125 -41 180
-202 276 -46 28 -96 58 -110 67 -15 10 -36 22 -47 28 -11 6 -32 18 -47 28 -15
9 -87 54 -161 99 -118 72 -140 82 -193 87 -32 3 -72 1 -89 -3z m680 -1062 c4
-5 17 -15 28 -20 12 -5 54 -30 92 -54 138 -90 199 -113 440 -165 22 -5 65 -12
95 -15 84 -9 100 -14 100 -29 0 -12 -70 -116 -168 -252 -66 -90 -209 -343
-226 -397 -26 -87 -25 -238 2 -297 63 -137 221 -187 457 -145 121 21 262 73
343 127 24 15 45 28 48 28 3 0 42 28 87 62 97 74 218 195 299 299 l59 76 110
37 c111 36 157 44 175 27 5 -5 54 -33 109 -61 55 -29 138 -73 185 -98 47 -24
90 -48 95 -52 6 -4 46 -27 90 -51 148 -80 127 -67 300 -172 210 -126 408 -258
681 -453 23 -16 52 -36 64 -44 37 -25 595 -443 600 -450 3 -3 39 -33 80 -65
120 -95 206 -185 219 -230 35 -128 -29 -244 -153 -280 -109 -32 -96 -38 -801
385 -419 252 -642 380 -660 380 -32 0 -89 -32 -110 -63 -22 -31 -19 -95 6
-131 17 -25 207 -148 387 -251 10 -5 77 -46 150 -90 73 -44 141 -84 150 -90
10 -5 78 -46 151 -90 73 -44 151 -91 174 -104 23 -13 61 -37 85 -52 24 -16 46
-29 49 -29 4 0 17 -10 30 -22 42 -40 22 -158 -39 -231 -29 -35 -48 -47 -95
-60 -33 -10 -87 -17 -122 -17 -68 0 -66 -1 -261 114 -58 34 -112 65 -120 69
-8 4 -22 11 -30 17 -24 16 -214 126 -230 133 -8 4 -22 11 -30 17 -22 15 -263
155 -280 163 -8 4 -31 17 -50 28 -135 82 -174 93 -228 62 -47 -27 -66 -68 -63
-132 1 -23 82 -111 101 -111 5 0 65 -34 135 -75 69 -41 128 -75 130 -75 2 0
47 -26 102 -58 54 -32 105 -61 113 -65 8 -4 29 -16 45 -27 17 -11 37 -23 45
-27 8 -4 58 -32 110 -63 52 -31 102 -60 110 -63 8 -4 38 -21 65 -37 28 -17 60
-36 72 -42 31 -15 34 -31 21 -91 -12 -54 -42 -110 -74 -139 -45 -39 -210 -53
-289 -25 -23 8 -104 45 -180 82 -180 87 -426 206 -586 284 -70 33 -137 61
-149 61 -44 0 -91 -32 -113 -77 -19 -39 -20 -47 -8 -81 24 -66 -1 -51 429
-258 366 -177 402 -195 402 -209 0 -19 -84 -99 -135 -130 -53 -30 -149 -55
-216 -55 -70 0 -327 47 -431 78 -175 52 -179 54 -172 74 3 11 19 39 34 61 173
256 2 643 -315 716 l-30 7 -6 99 c-10 149 -53 248 -151 344 -65 64 -128 100
-225 130 l-73 22 0 53 c0 110 -64 240 -161 330 -108 99 -181 130 -314 130
-158 1 -247 -44 -345 -176 -28 -37 -56 -68 -63 -68 -7 0 -21 17 -32 37 -28 52
-117 136 -178 168 -68 36 -170 65 -228 65 -47 0 -147 -27 -190 -52 -13 -7 -43
-28 -67 -46 -23 -19 -48 -32 -56 -29 -7 3 -55 58 -108 123 -52 66 -127 154
-167 198 -39 43 -71 85 -71 93 0 14 30 71 91 175 16 27 29 51 29 54 0 2 10 21
23 42 13 20 41 69 62 107 21 39 49 88 62 110 12 22 26 47 30 55 4 8 26 47 48
85 23 39 44 77 48 85 4 8 15 29 25 45 10 17 35 59 54 95 20 36 50 89 67 118
17 29 31 55 31 57 0 2 19 36 43 77 24 40 46 80 50 88 4 8 15 29 25 45 10 17
35 59 54 95 20 36 49 88 65 115 16 28 32 57 36 65 13 27 32 57 46 74 15 18 47
21 56 5z" transform="matrix(.1 0 0 -.1 0 621)" class="color1fb548 svgShape"></path></svg></g></svg>